# xmcd CD database file
#
# Track frame offsets:
#	150
#	33597
#	57456
#	80523
#	126934
#	155023
#	177456
#
# Disc length: 3279 seconds
#
# Revision: 0
# Processed by: cddbd v1.5.1PL0 Copyright (c) Steve Scherf et al.
# Submitted via: CDex 1.51
#
DISCID=600ccd07
DTITLE=The Ford Brothers - Center Stage
DYEAR=2004
DGENRE=Blues
TTITLE0=Mellow Down Easy
TTITLE1=Another Fine Day
TTITLE2=Good Morning Little Schoolgirl
TTITLE3=Nothing to Nobody
TTITLE4=Tired of Talkin'
TTITLE5=Feelin' Disconnected
TTITLE6=Up From the Streets/ Lovin' Cup
EXTD=YEAR: 2004
EXTT0=
EXTT1=
EXTT2=
EXTT3=
EXTT4=
EXTT5=
EXTT6=
PLAYORDER=
